# AST/ASF file generated using VICON BodyLanguage
# -----------------------------------------------
:version 1.10
:name VICON
:units
  mass 1.0
  length 0.45
  angle deg
:documentation
   .ast/.asf automatically generated from VICON data using
   VICON BodyBuilder and BodyLanguage model FoxedUp or BRILLIANT.MOD
:root
   order TX TY TZ RX RY RZ
   axis XYZ
   position 0 0 0  
   orientation 0 0 0 
:bonedata
  begin
     id 1 
     name lhipjoint
     direction 0.578396 -0.714046 0.394458 
     length 2.21935 
     axis 0 0 0  XYZ
  end
  begin
     id 2 
     name lfemur
     direction 0.34202 -0.939693 0  
     length 6.39105  
     axis 0 0 20  XYZ
    dof rx ry rz
    limits (-160.0 20.0)
           (-70.0 70.0)
           (-60.0 70.0)
  end
  begin
     id 3 
     name ltibia
     direction 0.34202 -0.939693 0   
     length 6.99037   
     axis 0 0 20   XYZ
    dof rx
    limits (-10.0 170.0)
  end
  begin
     id 4 
     name lfoot
     direction 0.0582372 -0.160005 0.985397   
     length 2.06111   
     axis -90 7.62852e-016 20   XYZ
    dof rx rz
    limits (-45.0 90.0)
           (-70.0 20.0)
  end
  begin
     id 5 
     name ltoes
     direction 1.53556e-011 -4.21875e-011 1   
     length 1.04074   
     axis -90 7.62852e-016 20   XYZ
    dof rx
    limits (-90.0 20.0)
  end
  begin
     id 6 
     name rhipjoint
     direction -0.558179 -0.726269 0.40121   
     length 2.182  
     axis 0 0 0  XYZ 
  end
  begin
     id 7 
     name rfemur
     direction -0.34202 -0.939693 0   
     length 6.51172   
     axis 0 0 -20   XYZ
    dof rx ry rz
    limits (-160.0 20.0)
           (-70.0 70.0)
           (-70.0 60.0)
  end
  begin
     id 8 
     name rtibia
     direction -0.34202 -0.939693 0   
     length 7.02607   
     axis 0 0 -20   XYZ
    dof rx
    limits (-10.0 170.0)
 end
 begin
     id 9 
     name rfoot
     direction -0.0788856 -0.216737 0.973038   
     length 1.96734  
     axis -90 -7.62852e-016 -20   XYZ
    dof rx rz
    limits (-45.0 90.0)
           (-20.0 70.0)
  end
  begin
     id 10 
     name rtoes
     direction -1.53567e-011 -4.21783e-011 1   
     length 0.990825   
     axis -90 -7.62852e-016 -20   XYZ
    dof rx
    limits (-90.0 20.0)
  end
  begin
     id 11 
     name lowerback
     direction 0.00668177 0.999323 -0.0361741   
     length 1.7655   
     axis 0 0 0   XYZ
    dof rx ry rz
    limits (-20.0 45.0)
           (-30.0 30.0)
           (-30.0 30.0)
  end
  begin
     id 12 
     name upperback
     direction -0.00222086 0.99851 0.0545167   
     length 1.74912   
     axis 0 0 0   XYZ
    dof rx ry rz
    limits (-20.0 45.0)
           (-30.0 30.0)
           (-30.0 30.0)
  end
  begin
     id 13 
     name thorax
     direction -0.00733971 0.997496 0.0703443   
     length 1.75715   
     axis 0 0 0   XYZ
    dof rx ry rz
    limits (-20.0 45.0)
           (-30.0 30.0)
           (-30.0 30.0)
  end
  begin
     id 14 
     name lowerneck
     direction 0.0279797 0.994795 0.0979765   
     length 1.46939   
     axis 0 0 0   XYZ
    dof rx ry rz
    limits (-20.0 45.0)
           (-30.0 30.0)
           (-30.0 30.0)
  end
  begin
     id 15 
     name upperneck
     direction 0.00339187 0.976776 -0.214238   
     length 1.48018   
     axis 0 0 0   XYZ
    dof rx ry rz
    limits (-20.0 45.0)
           (-30.0 30.0)
           (-30.0 30.0)
  end
  begin
     id 16
     name head
     direction -0.00263506 0.996603 -0.0823096  
     length 1.4976  
     axis 0 0 0   XYZ
    dof rx ry rz
    limits (-20.0 45.0)
           (-30.0 30.0)
           (-30.0 30.0)
  end
  begin
     id 17 
     name lclavicle
     direction 0.894044 0.44508 -0.0508781  
     length 3.03024  
     axis 0 0 0   XYZ
    dof ry rz
    limits (-20.0 10.0)
           (0.0 20.0)
  end
  begin
     id 18 
     name lhumerus
     direction 1 -4.48961e-011 -2.39475e-018   
     length 4.4661   
     axis 180 -30 -90   XYZ
    dof rx ry rz
    limits (-60.0 90.0)
           (-90.0 90.0)
           (-90.0 90.0)
  end
  begin
     id 19
     name lradius
     direction 1 -4.48961e-011 9.29328e-028   
     length 3.41414   
     axis 180 -30 -90   XYZ
    dof rx
    limits (-10.0 170.0)
  end
  begin
     id 20
     name lwrist
     direction 1 -4.48985e-011 1.53461e-026   
     length 1.70707   
     axis -1.09697e-014 90 90   XYZ
    dof ry
    limits (-180.0 0.0)
 end
  begin
     id 21 
     name lhand
     direction 1 -4.48966e-011 3.06923e-026   
     length 0.328298   
     axis -1.95843e-014 90 90   XYZ
    dof rx rz
    limits (-90.0 90.0)
           (-45.0 45.0)
  end
  begin
     id 22 
     name lfingers
     direction 1 -4.48893e-011 6.13845e-026   
     length 0.264682   
     axis -3.91686e-014 90 90   XYZ
    dof rx
    limits (0.0 90.0)
  end
  begin
     id 23
     name lthumb
     direction 0.707107 -6.34876e-011 0.707107   
     length 0.380032   
     axis -90 45 2.85299e-015   XYZ
    dof rx rz
    limits (-45.0 45.0)
           (-45.0 45.0)
  end
  begin
     id 24 
     name rclavicle
     direction -0.936955 0.347862 -0.0332887   
     length 3.26927  
     axis 0 0 0   XYZ 
    dof ry rz
    limits (-10.0 20.0)
           (-20.0 0.0)
  end
  begin
     id 25 
     name rhumerus
     direction -1 -4.4896e-011 1.78637e-018  
     length 4.40431   
     axis 180 30 90   XYZ
    dof rx ry rz
    limits (-90.0 60.0)
           (-90.0 90.0)
           (-90.0 90.0)
  end
  begin
     id 26 
     name rradius
     direction -1 -4.48955e-011 9.34036e-027   
     length 3.04688   
     axis 180 30 90   XYZ
    dof rx
    limits (-10.0 170.0)
  end
  begin
     id 27 
     name rwrist
     direction -1 -4.49011e-011 1.53461e-026   
     length 1.52344   
     axis -1.09697e-014 -90 -90   XYZ
    dof ry
    limits (-180.0 0.0)
  end
  begin
     id 28
     name rhand
     direction -1 -4.48834e-011 3.06923e-026   
     length 0.500489   
     axis -1.95843e-014 -90 -90   XYZ
    dof rx rz
    limits (-90.0 90.0)
           (-45.0 45.0)
  end
  begin
     id 29
     name rfingers
     direction -1 -4.48967e-011 6.13845e-026   
     length 0.403507   
     axis -3.91686e-014 -90 -90   XYZ
    dof rx
    limits (0.0 90.0)
  end
  begin
     id 30
     name rthumb
     direction -0.707107 -6.34826e-011 0.707107   
     length 0.579358   
     axis -90 -45 -2.85299e-015   XYZ
    dof rx rz
    limits (-45.0 45.0)
           (-45.0 45.0)
  end
:hierarchy
  begin
    root lhipjoint rhipjoint lowerback
    lhipjoint lfemur
    lfemur ltibia
    ltibia lfoot
    lfoot ltoes
    rhipjoint rfemur
    rfemur rtibia
    rtibia rfoot
    rfoot rtoes
    lowerback upperback
    upperback thorax
    thorax lowerneck lclavicle rclavicle
    lowerneck upperneck
    upperneck head
    lclavicle lhumerus
    lhumerus lradius
    lradius lwrist
    lwrist lhand lthumb
    lhand lfingers
    rclavicle rhumerus
    rhumerus rradius
    rradius rwrist
    rwrist rhand rthumb
    rhand rfingers
  end

#!OML:ASF H:\IndianDance\Patient Classification 1\Patient 1\Session 1\dancer.ASF
:FULLY-SPECIFIED
:DEGREES
2472
root -0.0303988 13.8434 0.869926 1623.77 -1.11188 -177.467
lowerback 6.16959 -0.569018 -0.234825
upperback -6.8022 -0.965969 1.77602
thorax -10.7025 -0.50443 2.21301
lowerneck -17.0033 -5.00001 -3.0032
upperneck 19.1335 -6.4543 2.70906
head 8.9936 -2.82949 0.613182
rclavicle 1.42628e-014 -1.59028e-015
rhumerus -11.0375 17.7533 -13.6547
rradius 29.2021
rwrist -6.90797
rhand 24.9145 -4.54695
rfingers 7.12502
rthumb 49.0826 -26.2384
lclavicle 1.42628e-014 -1.59028e-015
lhumerus -8.33245 -26.2394 4.33738
lradius 33.3038
lwrist 11.8668
lhand 2.11274 5.94955
lfingers 7.12502
lthumb 27.6124 -326.056
rfemur -30.2253 -15.5267 8.92995
rtibia 64.1633
rfoot -25.3208 -9.39008
rtoes -28.9306
lfemur -34.03 24.6139 -16.729
ltibia 67.5387
lfoot -30.3122 19.1393
ltoes 9.75721
2473
root -0.0548298 13.8373 0.872716 1623.98 -2.69647 -177.168
lowerback 5.71283 -0.618096 0.0894316
upperback -6.91365 -1.01647 1.81035
thorax -10.5536 -0.562483 2.06773
lowerneck -16.7507 -4.89057 -3.33959
upperneck 18.9897 -6.88733 2.90773
head 8.93 -3.30518 0.644252
rclavicle -1.19271e-015 5.96354e-016
rhumerus -10.9022 16.5161 -13.759
rradius 27.7274
rwrist -4.6633
rhand 25.7287 -5.00568
rfingers 7.12502
rthumb 49.8293 -26.3176
lclavicle -1.19271e-015 5.96354e-016
lhumerus -8.11753 -26.1812 4.62424
lradius 33.6053
lwrist 12.0441
lhand 1.91457 5.97525
lfingers 7.12502
lthumb 27.4229 -326.001
rfemur -29.49 -15.6558 9.17901
rtibia 63.4347
rfoot -25.518 -10.6591
rtoes -28.8575
lfemur -34.7952 23.4049 -16.7115
ltibia 67.8782
lfoot -30.2704 18.9124
ltoes 9.47869
2474
root -0.0831569 13.8362 0.876017 1624.12 -4.38708 -176.888
lowerback 5.29934 -0.66376 0.407943
upperback -7.0059 -1.0623 1.84445
thorax -10.4103 -0.61618 1.92473
lowerneck -16.4862 -5.17158 -3.5383
upperneck 18.87 -7.23494 2.94198
head 8.862 -3.48266 0.65056
rclavicle 7.54139e-015 -2.98177e-016
rhumerus -10.7735 15.0281 -13.8344
rradius 26.1979
rwrist -2.19997
rhand 26.1411 -5.4216
rfingers 7.12502
rthumb 50.2067 -26.5351
lclavicle 7.54139e-015 -2.98177e-016
lhumerus -7.91031 -26.2198 4.97467
lradius 33.9793
lwrist 12.4413
lhand 1.65965 6.03855
lfingers 7.12502
lthumb 27.179 -325.899
rfemur -28.9485 -15.9336 9.35717
rtibia 63.09
rfoot -25.4572 -11.3692
rtoes -27.7616
lfemur -35.452 22.0726 -16.7033
ltibia 68.1193
lfoot -30.1787 18.7042
ltoes 9.14274
2475
root -0.115829 13.8402 0.879619 1624.15 -6.16622 -176.627
lowerback 4.94767 -0.703223 0.711683
upperback -7.06926 -1.09788 1.88398
thorax -10.2727 -0.661154 1.79459
lowerneck -16.2076 -5.46631 -3.70347
upperneck 18.7554 -7.59645 2.90703
head 8.79038 -3.67178 0.627455
rclavicle -4.34841e-015 6.75868e-015
rhumerus -10.6554 13.3075 -13.8595
rradius 24.6591
rwrist 0.459119
rhand 26.135 -5.77589
rfingers 7.12502
rthumb 50.2011 -26.8924
lclavicle -4.34841e-015 6.75868e-015
lhumerus -7.7229 -26.4325 5.36997
lradius 34.4357
lwrist 12.9591
lhand 1.37973 6.10583
lfingers 7.12502
lthumb 26.9112 -325.79
rfemur -28.4791 -16.2957 9.4291
rtibia 63.0108
rfoot -25.1691 -11.7214
rtoes -26.2093
lfemur -35.9476 20.6413 -16.6917
ltibia 68.2461
lfoot -30.0428 18.5078
ltoes 8.76809
2476
root -0.152815 13.8497 0.883514 1624.08 -8.01533 -176.37
lowerback 4.67318 -0.738763 0.990586
upperback -7.10461 -1.12513 1.94489
thorax -10.1505 -0.696836 1.7009
lowerneck -15.9305 -5.7703 -3.85198
upperneck 18.6661 -7.96563 2.81575
head 8.72537 -3.8693 0.5823
rclavicle -1.0225e-014 5.06901e-015
rhumerus -10.5406 11.3443 -13.8218
rradius 23.1673
rwrist 3.32491
rhand 25.739 -6.07154
rfingers 7.12502
rthumb 49.8387 -27.3785
lclavicle -1.0225e-014 5.06901e-015
lhumerus -7.59331 -26.8475 5.80796
lradius 34.9853
lwrist 13.4247
lhand 1.12777 6.14494
lfingers 7.12502
lthumb 26.6701 -325.714
rfemur -27.9732 -16.6726 9.38478
rtibia 63.0861
rfoot -24.6211 -11.8245
rtoes -24.5778
lfemur -36.2577 19.1433 -16.6604
ltibia 68.2488
lfoot -29.8631 18.3149
ltoes 8.35948
2477
root -0.193951 13.8657 0.887679 1623.88 -9.92287 -176.102
lowerback 4.48218 -0.775699 1.24762
upperback -7.11478 -1.15025 2.02956
thorax -10.0502 -0.726543 1.6457
lowerneck -15.6601 -6.07947 -3.99003
upperneck 18.6084 -8.34337 2.69991
head 8.67127 -4.07291 0.526365
rclavicle -1.39895e-014 2.6339e-014
rhumerus -10.4412 9.29457 -13.7269
rradius 21.8099
rwrist 6.27757
rhand 25.1325 -6.32755
rfingers 7.12502
rthumb 49.2828 -27.9189
lclavicle -1.39895e-014 2.6339e-014
lhumerus -7.53788 -27.4811 6.2549
lradius 35.6402
lwrist 13.7075
lhand 0.893428 6.12517
lfingers 7.12502
lthumb 26.4458 -325.7
rfemur -27.3511 -16.9812 9.2309
rtibia 63.2346
rfoot -23.8168 -11.7405
rtoes -23.0524
lfemur -36.3711 17.6001 -16.5963
ltibia 68.1212
lfoot -29.649 18.0996
ltoes 7.96423
2478
root -0.238559 13.8884 0.892156 1623.58 -11.868 -175.816
lowerback 4.37086 -0.809126 1.47654
upperback -7.10747 -1.16733 2.1432
thorax -9.97777 -0.747362 1.63757
lowerneck -15.4095 -6.39461 -4.13587
upperneck 18.5901 -8.72975 2.57597
head 8.63455 -4.28195 0.467327
rclavicle -5.46658e-015 -6.65929e-015
rhumerus -10.3703 7.24378 -13.5794
rradius 20.6476
rwrist 9.25762
rhand 24.464 -6.54493
rfingers 7.12502
rthumb 48.6686 -28.4397
lclavicle -5.46658e-015 -6.65929e-015
lhumerus -7.55602 -28.3006 6.70077
lradius 36.4071
lwrist 13.7182
lhand 0.706676 6.02688
lfingers 7.12502
lthumb 26.2671 -325.771
rfemur -26.5957 -17.1344 8.98921
rtibia 63.4107
rfoot -22.8018 -11.5507
rtoes -21.5586
lfemur -36.3035 16.0358 -16.4991
ltibia 67.8662
lfoot -29.4058 17.8442
ltoes 7.60783
2479
root -0.285866 13.9166 0.897162 1623.2 -13.8411 -175.524
lowerback 4.32647 -0.842103 1.65713
upperback -7.1009 -1.18435 2.27921
thorax -9.94523 -0.76294 1.68231
lowerneck -15.1724 -6.71081 -4.28258
upperneck 18.6054 -9.12186 2.45337
head 8.61213 -4.49385 0.40764
rclavicle -9.88954e-015 1.78906e-014
rhumerus -10.3268 5.31805 -13.4127
rradius 19.7187
rwrist 12.1637
rhand 23.8308 -6.74684
rfingers 7.12502
rthumb 48.0856 -28.9196
lclavicle -9.88954e-015 1.78906e-014
lhumerus -7.66529 -29.2417 7.13485
lradius 37.2948
lwrist 13.4494
lhand 0.560049 5.83736
lfingers 7.12502
lthumb 26.1267 -325.94
rfemur -25.7517 -17.0507 8.67315
rtibia 63.6083
rfoot -21.5024 -11.3837
rtoes -20.4068
lfemur -36.1035 14.467 -16.3953
ltibia 67.4987
lfoot -29.1211 17.5537
ltoes 7.20455
2480
root -0.334758 13.9493 0.902518 1622.78 -15.8277 -175.225
lowerback 4.32776 -0.871259 1.79017
upperback -7.10107 -1.19832 2.42736
thorax -9.94654 -0.77281 1.76791
lowerneck -14.9546 -7.02925 -4.42844
upperneck 18.6464 -9.5237 2.34712
head 8.60312 -4.7086 0.351226
rclavicle 1.68718e-014 -9.74045e-015
rhumerus -10.3104 3.61105 -13.2615
rradius 19.0298
rwrist 14.8836
rhand 23.2697 -6.94749
rfingers 7.12502
rthumb 47.568 -29.3594
lclavicle 1.68718e-014 -9.74045e-015
lhumerus -7.83921 -30.2404 7.53162
lradius 38.2936
lwrist 13.0093
lhand 0.447068 5.56108
lfingers 7.12502
lthumb 26.0185 -326.2
rfemur -24.891 -16.6523 8.3156
rtibia 63.8649
rfoot -19.8922 -11.2344
rtoes -19.516
lfemur -35.8098 12.8975 -16.2879
ltibia 67.0378
lfoot -28.8094 17.197
ltoes 6.80554
2481
root -0.384578 13.9843 0.908498 1622.37 -17.814 -174.948
lowerback 4.3452 -0.895907 1.86002
upperback -7.11204 -1.21182 2.57219
thorax -9.96827 -0.777931 1.88629
lowerneck -14.756 -7.34591 -4.54753
upperneck 18.6888 -9.92896 2.24059
head 8.59685 -4.9227 0.289756
rclavicle 2.55935e-015 -3.77691e-015
rhumerus -10.2996 2.29086 -13.1629
rradius 18.5685
rwrist 17.1945
rhand 22.8655 -7.08675
rfingers 7.12502
rthumb 47.1946 -29.6668
lclavicle 2.55935e-015 -3.77691e-015
lhumerus -8.06996 -31.2096 7.8882
lradius 39.3785
lwrist 12.54
lhand 0.36711 5.23067
lfingers 7.12502
lthumb 25.942 -326.52
rfemur -24.1112 -15.9117 7.9189
rtibia 64.2368
rfoot -17.9573 -11.0669
rtoes -18.6805
lfemur -35.476 11.3281 -16.2146
ltibia 66.5114
lfoot -28.4718 16.7847
ltoes 6.3895
2482
root -0.434689 14.0195 0.914738 1621.97 -19.7785 -174.712
lowerback 4.36329 -0.910931 1.8621
upperback -7.13084 -1.21925 2.70152
thorax -9.99795 -0.775515 2.02569
lowerneck -14.5704 -7.66146 -4.64566
upperneck 18.7134 -10.3364 2.13964
head 8.58607 -5.13513 0.226931
rclavicle -3.86139e-014 -4.4329e-014
rhumerus -10.2642 1.26753 -13.1489
rradius 18.2781
rwrist 19.1082
rhand 22.4546 -7.19371
rfingers 7.12502
rthumb 46.8145 -29.9412
lclavicle -3.86139e-014 -4.4329e-014
lhumerus -8.33605 -32.1012 8.19196
lradius 40.5118
lwrist 12.1979
lhand 0.326152 4.87566
lfingers 7.12502
lthumb 25.9027 -326.869
rfemur -23.4841 -14.8256 7.49392
rtibia 64.7767
rfoot -15.662 -10.898
rtoes -17.8864
lfemur -35.1245 9.77048 -16.1956
ltibia 65.9453
lfoot -28.1133 16.3349
ltoes 5.91644
